<svg width="44" height="44" viewBox="0 0 44 44" fill="none" xmlns="http://www.w3.org/2000/svg">
<g clip-path="url(#clip0)">
<path d="M41.227 3.86719H37.0899C36.73 3.86719 36.438 4.15924 36.438 4.5191C36.438 4.8793 36.73 5.17136 37.0899 5.17136H41.227C42.037 5.17136 42.696 5.83032 42.696 6.64035V16.5923C42.696 17.4023 42.037 18.0613 41.227 18.0613H25.9801C25.8073 18.0613 25.6414 18.1301 25.5189 18.2523L21.7635 22.0077V18.7136C21.7635 18.3534 21.4718 18.0613 21.1116 18.0613H19.8698C19.0598 18.0613 18.4008 17.4023 18.4008 16.5923V6.64035C18.4008 5.83032 19.0598 5.17136 19.8698 5.17136H34.9163C35.2765 5.17136 35.5685 4.8793 35.5685 4.5191C35.5685 4.15924 35.2765 3.86719 34.9163 3.86719H19.8698C18.3408 3.86719 17.0967 5.11127 17.0967 6.64035V16.5923C17.0967 18.1214 18.3408 19.3655 19.8698 19.3655H20.4597V23.5818C20.4597 23.8456 20.6184 24.0833 20.8622 24.1844C20.9427 24.2176 21.0273 24.234 21.1116 24.234C21.2811 24.234 21.4479 24.1676 21.5728 24.043L26.25 19.3655H41.227C42.7561 19.3655 44.0002 18.1214 44.0002 16.5923V6.64035C44.0002 5.11127 42.7561 3.86719 41.227 3.86719Z" fill="#232323"/>
<path d="M23.5714 12.231C24.3445 11.702 25.3069 11.043 25.3069 9.91644C25.3069 9.38202 25.0904 8.92648 24.6812 8.59918C24.3193 8.30948 23.8204 8.14331 23.3125 8.14331C22.3746 8.14331 21.3779 8.72003 21.3779 9.78854C21.3779 10.2599 21.5763 10.4891 21.9845 10.4891C22.4451 10.4891 22.6935 10.2333 22.6935 9.99298C22.6935 9.59418 22.9221 9.36523 23.3209 9.36523C23.7906 9.36523 23.9571 9.68515 23.9571 9.95874C23.9571 10.4653 23.3599 10.9037 22.7274 11.368C22.0137 11.8917 21.2759 12.4335 21.2759 13.1425V13.9683C21.2759 14.2244 21.625 14.3879 21.8654 14.3879H24.896C25.1149 14.3879 25.3069 14.1082 25.3069 13.7893C25.3069 13.4798 25.1149 13.2083 24.896 13.2083H22.6764V13.1425C22.6764 12.8437 23.0913 12.56 23.5714 12.231Z" fill="#232323"/>
<path d="M28.9137 14.3875C29.3773 14.3875 29.5885 14.1703 29.5885 13.9683V13.0767H29.9436C30.1555 13.0767 30.3633 12.7678 30.3633 12.4529C30.3633 12.0243 30.1457 11.8292 29.9436 11.8292H29.5885V11.2441C29.5885 11.0548 29.4119 10.8332 28.9137 10.8332C28.4156 10.8332 28.239 11.0544 28.239 11.2441V11.8292H27.5354L29.0342 8.82242C29.0571 8.76971 29.0779 8.71332 29.0779 8.65625C29.0779 8.51727 28.9889 8.384 28.8271 8.28094C28.6952 8.19736 28.529 8.14331 28.4031 8.14331C28.1554 8.14331 27.9557 8.26617 27.8402 8.48975L25.8737 12.3455C25.8133 12.4563 25.8042 12.5563 25.8042 12.606C25.8042 12.8877 25.9868 13.0767 26.2581 13.0767H28.239V13.9679C28.239 14.1703 28.4501 14.3875 28.9137 14.3875Z" fill="#232323"/>
<path d="M34.0028 8.0134L31.0152 14.1505C30.9873 14.2063 30.9712 14.2667 30.9712 14.317C30.9712 14.5403 31.1672 14.7793 31.459 14.7793C31.6302 14.7793 31.7916 14.689 31.8517 14.5604L34.8481 8.42294C34.8773 8.36453 34.8834 8.30008 34.8834 8.25644C34.8834 7.97983 34.6182 7.79419 34.3701 7.79419C34.2022 7.79419 34.0683 7.87408 34.0028 8.0134Z" fill="#232323"/>
<path d="M36.2855 10.3018C36.6561 10.3018 36.969 10.1098 36.969 9.8822V9.3226H38.4709V9.90469L36.3781 13.5288C36.3362 13.6047 36.3174 13.6745 36.3174 13.7554C36.3174 14.1579 36.7672 14.4386 37.1711 14.4386C37.3631 14.4386 37.489 14.3785 37.5551 14.2539L39.5471 10.4405C39.6112 10.3203 39.8207 9.9057 39.8207 9.62674V8.56259C39.8207 8.37964 39.5347 8.14331 39.2309 8.14331H36.209C35.9115 8.14331 35.6191 8.3511 35.6191 8.56259V9.8822C35.6191 10.1135 35.9182 10.3018 36.2855 10.3018Z" fill="#232323"/>
<path d="M26.9646 26.506C26.6256 26.167 26.1744 25.9803 25.6947 25.9803C25.215 25.9803 24.7638 26.167 24.4248 26.506L20.4391 30.4917C18.8519 29.6622 17.4712 28.8713 15.9284 27.5702C15.6531 27.3382 15.2419 27.3731 15.0096 27.6484C14.7776 27.9237 14.8126 28.3349 15.0878 28.5672C16.8697 30.0694 18.4206 30.9174 20.2629 31.8697C20.515 32 20.8225 31.9523 21.0232 31.7516L23.1676 29.6075L30.237 36.6768C27.9536 38.6369 24.7198 39.3194 21.0484 38.5977C16.9194 37.7856 12.55 35.2434 8.74525 31.4387C4.94051 27.6339 2.39798 23.2642 1.58594 19.1352C0.864197 15.4634 1.54666 12.2297 3.50643 9.94665L10.5768 17.0167L8.43171 19.1614C8.23097 19.3621 8.1833 19.67 8.31388 19.9221C9.61234 22.4327 10.66 24.275 13.2845 26.8998C13.5393 27.1542 13.9522 27.1542 14.2066 26.8998C14.4614 26.645 14.4614 26.2321 14.2066 25.9776C11.8538 23.6248 10.8678 21.9953 9.6919 19.7458L13.6779 15.7595C14.0173 15.4204 14.2039 14.9693 14.2039 14.4896C14.2039 14.0099 14.0173 13.5587 13.6779 13.2196L7.28566 6.82739C6.94661 6.48801 6.49544 6.30103 6.01573 6.30103C5.53603 6.30103 5.08486 6.48801 4.74581 6.82706L3.0274 8.54547C0.412355 11.1605 -0.554104 15.0109 0.306276 19.3867C1.16766 23.7671 3.83709 28.3748 7.8231 32.3608C11.8088 36.3465 16.4165 39.0159 20.7969 39.877C21.8396 40.0821 22.8521 40.1835 23.8256 40.1831C26.9371 40.1831 29.6461 39.1479 31.6381 37.1559L33.3562 35.4378C33.6956 35.0984 33.8822 34.6476 33.8822 34.1679C33.8822 33.6882 33.6956 33.237 33.3562 32.8979L26.9646 26.506ZM5.66796 7.7492C5.76061 7.65655 5.88414 7.60519 6.01573 7.60519C6.14733 7.60519 6.27086 7.65622 6.36351 7.7492L12.7561 14.1418C12.8488 14.2344 12.9001 14.358 12.9001 14.4896C12.9001 14.6212 12.8488 14.7447 12.7561 14.8373L11.4989 16.0945L4.41079 9.00637L5.66796 7.7492ZM32.4344 34.5156L31.1769 35.7728L24.0898 28.6853L25.3469 27.4282C25.4396 27.3352 25.5634 27.2842 25.6947 27.2842C25.826 27.2842 25.9495 27.3352 26.0425 27.4282L32.4344 33.8198C32.6261 34.0118 32.6261 34.324 32.4344 34.5156Z" fill="#232323"/>
</g>
<defs>
<clipPath id="clip0">
<rect width="44" height="44" fill="white"/>
</clipPath>
</defs>
</svg>
