<svg width="437" height="50" viewBox="0 0 437 50" fill="none" xmlns="http://www.w3.org/2000/svg">
<path d="M11.4115 10.2365C11.7584 8.91859 12.9499 8 14.3128 8H87.2067C89.1431 8 90.5722 9.80717 90.126 11.6914L82.547 43.6914C82.2266 45.0445 81.0183 46 79.6278 46H5.89184C3.92482 46 2.49003 44.1388 2.99061 42.2365L11.4115 10.2365Z" fill="#FED500" stroke="#FED500"/>
<path d="M11 46H79.8367C81.6907 46 83.3017 44.726 83.729 42.9219L91.1257 11.6914C91.572 9.80716 90.1428 8 88.2065 8H82.672C81.7562 8 80.9574 8.62202 80.733 9.5099L75.6665 29.555C75.5068 30.1867 75.9843 30.8 76.636 30.8H85.917" stroke="#232323" stroke-width="2" stroke-linecap="round" stroke-linejoin="round"/>
<path d="M54.4545 23.2727L1 23.2727" stroke="#232323" stroke-width="2" stroke-linecap="round"/>
<circle cx="64.3638" cy="42" r="8" fill="#E0BC00"/>
<circle cx="64.3638" cy="42" r="7" fill="#FED500" stroke="#232323" stroke-width="2"/>
<circle cx="24.2729" cy="42" r="8" fill="#E0BC00"/>
<circle cx="24.2729" cy="42" r="7" fill="#FED500" stroke="#232323" stroke-width="2"/>
<path d="M69.7273 8L22 8" stroke="#232323" stroke-width="2" stroke-linecap="round"/>
<path d="M124.754 22.5781H113.23L109.344 30H105.418L120.867 1.5625H124.09L129.715 30H126.102L124.754 22.5781ZM114.852 19.4922H124.207L121.844 6.23047L114.852 19.4922ZM139.812 25.0586L147.43 8.86719H151.16L140.516 30H137.82L133.68 8.86719H137.156L139.812 25.0586ZM160.457 3.75L159.559 8.86719H163.406L162.918 11.6602H159.09L156.883 24.8047C156.844 25.1432 156.837 25.4557 156.863 25.7422C156.954 26.7578 157.508 27.2656 158.523 27.2656C158.953 27.2656 159.526 27.2005 160.242 27.0703L159.969 30.0195C159.122 30.2539 158.263 30.3711 157.391 30.3711C155.984 30.3451 154.93 29.8307 154.227 28.8281C153.523 27.8125 153.25 26.4518 153.406 24.7461L155.555 11.6602H151.824L152.312 8.86719H156.043L156.941 3.75H160.457ZM175.359 8.47656C177.13 8.5026 178.647 8.98438 179.91 9.92188C181.173 10.8594 182.104 12.1549 182.703 13.8086C183.315 15.4492 183.523 17.2461 183.328 19.1992L183.289 19.6289C183.042 21.6862 182.43 23.5482 181.453 25.2148C180.477 26.8685 179.214 28.1576 177.664 29.082C176.115 30.0065 174.415 30.4427 172.566 30.3906C170.809 30.3646 169.292 29.8828 168.016 28.9453C166.753 28.0078 165.828 26.7318 165.242 25.1172C164.656 23.5026 164.448 21.7253 164.617 19.7852C164.812 17.5977 165.405 15.6315 166.395 13.8867C167.384 12.1419 168.654 10.7943 170.203 9.84375C171.766 8.88021 173.484 8.42448 175.359 8.47656ZM168.172 19.8047C168.081 20.625 168.081 21.4779 168.172 22.3633C168.302 23.8997 168.758 25.1237 169.539 26.0352C170.333 26.9466 171.388 27.4219 172.703 27.4609C173.875 27.5 174.956 27.2135 175.945 26.6016C176.935 25.9766 177.768 25.0391 178.445 23.7891C179.122 22.5391 179.559 21.1523 179.754 19.6289C179.858 18.431 179.878 17.4219 179.812 16.6016C179.656 15.026 179.181 13.7826 178.387 12.8711C177.592 11.9596 176.538 11.4779 175.223 11.4258C173.4 11.3867 171.85 12.1029 170.574 13.5742C169.298 15.0456 168.51 16.9727 168.211 19.3555L168.172 19.8047ZM205.145 19.5312C204.884 21.6927 204.292 23.6393 203.367 25.3711C202.443 27.1029 201.323 28.3854 200.008 29.2188C198.693 30.0521 197.234 30.4492 195.633 30.4102C193.081 30.3581 191.186 29.401 189.949 27.5391L189.227 30H185.965L191.18 0H194.715L192.586 11.2109C194.279 9.33594 196.336 8.42448 198.758 8.47656C200.789 8.52865 202.371 9.27734 203.504 10.7227C204.637 12.168 205.236 14.1602 205.301 16.6992C205.314 17.5326 205.275 18.3398 205.184 19.1211L205.145 19.5312ZM201.785 17.4805C201.824 15.5794 201.505 14.1276 200.828 13.125C200.151 12.1094 199.116 11.5755 197.723 11.5234C195.522 11.4714 193.66 12.5781 192.137 14.8438L190.555 24.043C191.336 26.1914 192.801 27.2917 194.949 27.3438C196.329 27.3958 197.534 26.9857 198.562 26.1133C199.604 25.2409 200.392 24.0234 200.926 22.4609C201.46 20.8854 201.746 19.2253 201.785 17.4805ZM221.375 27.9102C219.721 29.6159 217.618 30.4427 215.066 30.3906C213.048 30.3385 211.551 29.6159 210.574 28.2227C209.611 26.8294 209.253 24.9284 209.5 22.5195L211.766 8.86719H215.301L213.016 22.5781C212.951 23.151 212.938 23.7109 212.977 24.2578C213.042 25.1953 213.322 25.931 213.816 26.4648C214.311 26.9987 215.001 27.2852 215.887 27.3242C218.413 27.4023 220.366 26.3802 221.746 24.2578L224.402 8.86719H227.938L224.266 30H220.926L221.375 27.9102ZM242.645 24.2773C242.84 22.819 242.039 21.7904 240.242 21.1914L236.57 20.1172C233.471 19.0495 231.974 17.2786 232.078 14.8047C232.169 12.9427 233.016 11.4193 234.617 10.2344C236.232 9.03646 238.126 8.45052 240.301 8.47656C242.436 8.5026 244.168 9.1276 245.496 10.3516C246.837 11.5625 247.482 13.1445 247.43 15.0977L243.914 15.0781C243.94 14.0234 243.608 13.1641 242.918 12.5C242.228 11.8359 241.31 11.4909 240.164 11.4648C238.94 11.4388 237.885 11.7383 237 12.3633C236.18 12.9492 235.704 13.7174 235.574 14.668C235.405 15.8919 236.154 16.7839 237.82 17.3438L239.598 17.832C242.02 18.457 243.738 19.2708 244.754 20.2734C245.77 21.276 246.238 22.5195 246.16 24.0039C246.082 25.319 245.652 26.4648 244.871 27.4414C244.09 28.418 243.048 29.1667 241.746 29.6875C240.444 30.1953 239.057 30.4297 237.586 30.3906C235.346 30.3646 233.497 29.7135 232.039 28.4375C230.581 27.1484 229.878 25.4948 229.93 23.4766L233.465 23.4961C233.465 24.681 233.842 25.6315 234.598 26.3477C235.353 27.0638 236.388 27.4219 237.703 27.4219C238.992 27.4479 240.105 27.181 241.043 26.6211C241.98 26.0482 242.514 25.2669 242.645 24.2773ZM281.355 26.25C280.405 27.5911 279.018 28.6263 277.195 29.3555C275.385 30.0716 273.315 30.4167 270.984 30.3906C269.122 30.3516 267.495 29.9154 266.102 29.082C264.708 28.2487 263.615 27.0573 262.82 25.5078C262.026 23.9453 261.57 22.1745 261.453 20.1953C261.362 18.6458 261.551 16.5495 262.02 13.9062C262.501 11.263 263.335 8.97786 264.52 7.05078C265.704 5.1237 267.182 3.65234 268.953 2.63672C270.737 1.62109 272.775 1.13281 275.066 1.17188C277.71 1.22396 279.812 2.01172 281.375 3.53516C282.951 5.04557 283.849 7.17448 284.07 9.92188H280.438C280.294 8.125 279.754 6.74479 278.816 5.78125C277.879 4.81771 276.583 4.3099 274.93 4.25781C272.482 4.16667 270.431 5.04557 268.777 6.89453C267.137 8.74349 266.056 11.4453 265.535 15L265.164 17.7344L265.105 19.2188C265.105 21.7839 265.633 23.7695 266.688 25.1758C267.742 26.569 269.22 27.2786 271.121 27.3047C273.868 27.3698 276.049 26.6927 277.664 25.2734L278.836 18.8867H272.43L272.977 15.8398H282.977L281.355 26.25ZM299.344 12.0898L297.684 11.9141C295.418 11.9141 293.634 12.9362 292.332 14.9805L289.734 30H286.199L289.871 8.86719L293.289 8.84766L292.762 11.3086C294.259 9.34245 296.023 8.38542 298.055 8.4375C298.484 8.4375 299.044 8.53516 299.734 8.73047L299.344 12.0898ZM310.867 8.47656C312.638 8.5026 314.155 8.98438 315.418 9.92188C316.681 10.8594 317.612 12.1549 318.211 13.8086C318.823 15.4492 319.031 17.2461 318.836 19.1992L318.797 19.6289C318.549 21.6862 317.938 23.5482 316.961 25.2148C315.984 26.8685 314.721 28.1576 313.172 29.082C311.622 30.0065 309.923 30.4427 308.074 30.3906C306.316 30.3646 304.799 29.8828 303.523 28.9453C302.26 28.0078 301.336 26.7318 300.75 25.1172C300.164 23.5026 299.956 21.7253 300.125 19.7852C300.32 17.5977 300.913 15.6315 301.902 13.8867C302.892 12.1419 304.161 10.7943 305.711 9.84375C307.273 8.88021 308.992 8.42448 310.867 8.47656ZM303.68 19.8047C303.589 20.625 303.589 21.4779 303.68 22.3633C303.81 23.8997 304.266 25.1237 305.047 26.0352C305.841 26.9466 306.896 27.4219 308.211 27.4609C309.383 27.5 310.464 27.2135 311.453 26.6016C312.443 25.9766 313.276 25.0391 313.953 23.7891C314.63 22.5391 315.066 21.1523 315.262 19.6289C315.366 18.431 315.385 17.4219 315.32 16.6016C315.164 15.026 314.689 13.7826 313.895 12.8711C313.1 11.9596 312.046 11.4779 310.73 11.4258C308.908 11.3867 307.358 12.1029 306.082 13.5742C304.806 15.0456 304.018 16.9727 303.719 19.3555L303.68 19.8047ZM334.891 27.9102C333.237 29.6159 331.134 30.4427 328.582 30.3906C326.564 30.3385 325.066 29.6159 324.09 28.2227C323.126 26.8294 322.768 24.9284 323.016 22.5195L325.281 8.86719H328.816L326.531 22.5781C326.466 23.151 326.453 23.7109 326.492 24.2578C326.557 25.1953 326.837 25.931 327.332 26.4648C327.827 26.9987 328.517 27.2852 329.402 27.3242C331.928 27.4023 333.882 26.3802 335.262 24.2578L337.918 8.86719H341.453L337.781 30H334.441L334.891 27.9102ZM362.215 19.5312C361.954 21.6797 361.375 23.6133 360.477 25.332C359.578 27.0508 358.465 28.3398 357.137 29.1992C355.809 30.0456 354.337 30.4492 352.723 30.4102C350.275 30.3581 348.4 29.5312 347.098 27.9297L345.203 38.125H341.668L346.746 8.86719L349.949 8.84766L349.559 11.2109C351.303 9.33594 353.393 8.42448 355.828 8.47656C357.859 8.52865 359.441 9.27734 360.574 10.7227C361.707 12.168 362.306 14.1602 362.371 16.6992C362.384 17.5326 362.352 18.3398 362.273 19.1211L362.215 19.5312ZM358.738 19.1211L358.836 17.4805C358.836 15.5794 358.471 14.1276 357.742 13.125C357.026 12.1094 355.984 11.5755 354.617 11.5234C352.573 11.4714 350.809 12.4414 349.324 14.4336L347.547 24.5703C348.341 26.4453 349.767 27.4089 351.824 27.4609C353.582 27.5 355.073 26.8164 356.297 25.4102C357.534 23.9909 358.348 21.8945 358.738 19.1211Z" fill="#232323"/>
</svg>
